<svg version="1.1" viewBox="22.638 26.917 340.5 269.61" xmlns="http://www.w3.org/2000/svg" xmlns:xlink="http://www.w3.org/1999/xlink">
 <defs>
  <linearGradient id="linearGradient8871">
   <stop stop-color="#142c54" offset="0"/>
   <stop stop-color="#2f59aa" offset="1"/>
  </linearGradient>
  <radialGradient id="radialGradient9420" cx="213.39" cy="654.77" r="173.73" gradientTransform="matrix(1.9243 0 0 .60166 -383.65 -143.67)" gradientUnits="userSpaceOnUse" xlink:href="#linearGradient8871"/>
 </defs>
 <g transform="translate(117.65 30.627)">
  <g transform="matrix(2.5805,0,0,3.7223,-156.67,-277.97)" fill="#ffb34a" fill-rule="evenodd" stroke-width=".071321">
   <rect x="87.669" y="110.85" width=".89995" height="2.4431"/>
   <rect x="89.424" y="110.85" width=".89995" height="2.4431"/>
   <rect x="91.17" y="110.85" width=".89995" height="2.4431"/>
  </g>
  <g fill="#142c54">
   <path d="m60.384 59.625c-0.64062 0-1.2738 0.02969-1.9031 0.07261a19.468 19.761 0 0 1 6.3918 14.639 19.468 19.761 0 0 1-19.468 19.761 19.468 19.761 0 0 1-12.369-4.5133v27.093c0 15.151 12.197 27.348 27.348 27.348h29.705c15.151 0 27.348-12.197 27.348-27.348v-26.642a19.468 19.761 0 0 1-11.805 4.0629 19.468 19.761 0 0 1-19.468-19.761 19.468 19.761 0 0 1 6.361-14.604c-0.8026-0.07023-1.6146-0.10829-2.436-0.10829zm6.6884 55.587h16.328c2.9444 0 5.315 2.37 5.315 5.3144v16.328c0 2.9444-2.3706 5.3144-5.315 5.3144h-16.328c-2.9444 0-5.315-2.37-5.315-5.3144v-16.328c0-2.9444 2.3706-5.3144 5.315-5.3144z" stroke-width=".37218"/>
   <g transform="translate(0,-1.0583)" fill-rule="evenodd">
    <ellipse transform="matrix(.47898 -.87783 .7317 .68162 0 0)" cx="-43.926" cy="49.793" rx="11.558" ry="18.936"/>
    <ellipse transform="matrix(.96669 -.25596 .26722 .96364 0 0)" cx="36.726" cy="42.007" rx="15.326" ry="22.472"/>
   </g>
   <g transform="matrix(-1,0,0,1,150.47,-1.0583)" fill-rule="evenodd">
    <ellipse transform="matrix(.47898 -.87783 .7317 .68162 0 0)" cx="-43.926" cy="49.793" rx="11.558" ry="18.936"/>
    <ellipse transform="matrix(.96669 -.25596 .26722 .96364 0 0)" cx="36.726" cy="42.007" rx="15.326" ry="22.472"/>
   </g>
  </g>
 </g>
 <g transform="translate(2.5e-4)" fill="url(#radialGradient9420)" stroke-width="2.2302" style="mix-blend-mode:color" aria-label="WireCat">
  <path d="m45.696 261.59 1.4273 10.437h0.17842l1.6057-10.616 13.827-40.322h4.4604l13.916 40.5 1.6057 10.437h0.17842l1.6949-10.616 11.062-40.322h8.7423l-19.001 63.337h-5.0848l-13.649-40.589-1.8734-9.456h-0.44604l-1.7842 9.5452-13.649 40.5h-5.174l-19.358-63.337h9.3668z"/>
  <path d="m115.28 236.7h8.2071v46.834h-8.2071zm-1.695-11.151q0-2.0518 1.6057-3.6575 1.6057-1.6949 4.1928-1.6949t4.282 1.6949q1.6949 1.6057 1.6949 3.6575t-1.6949 3.6575q-1.6949 1.5165-4.282 1.5165t-4.1928-1.5165q-1.6057-1.6057-1.6057-3.6575z"/>
  <path d="m165.68 244.46q-1.5165-0.44604-2.9438-0.80287t-2.6762-0.35683q-4.728 0-7.4042 2.4086-2.587 2.4086-3.2115 6.0661v31.758h-8.2071v-46.834h5.7093l1.6057 6.2445h0.80287q2.0518-3.4791 4.728-5.3524 2.7654-1.9626 6.869-1.9626 1.2489 0 2.9438 0.26762 1.6949 0.17841 3.3899 0.71366z"/>
  <path d="m213.23 279.7q-3.1223 2.3194-7.761 3.7467-4.6388 1.3381-10.08 1.3381-5.8877 0-10.259-1.695-4.282-1.7842-7.0474-4.9956-2.7654-3.2115-4.1036-7.761t-1.3381-10.17q0-12.043 5.8877-18.377 5.9769-6.4229 16.949-6.4229 3.4791 0 6.9582 0.80287 3.4791 0.71366 6.2445 2.8546 2.7654 2.0518 4.4604 5.7093 1.7842 3.6575 1.7842 9.5452 0 1.4273-0.0892 3.3007t-0.35683 3.6575h-33.453q0.17842 8.2071 3.9251 12.4 3.7467 4.1928 12.757 4.1928 3.7467 0 7.1366-1.2489 3.3899-1.3381 5.2632-3.1223zm-6.1553-24.354q0.17842-7.1366-2.9438-10.08-3.0331-2.9438-8.5639-2.9438-6.2445 0-9.902 2.9438t-4.282 10.08z"/>
  <path d="m272.73 280.86q-2.9438 2.141-7.4934 2.9438-4.5496 0.89208-9.6344 0.89208-5.9769 0-11.419-1.8734-5.3524-1.9626-9.456-5.8877-4.1036-4.0143-6.5122-10.08-2.4086-6.1553-2.4086-14.541 0-8.7423 2.6762-14.898 2.6762-6.1553 6.9582-9.9912 4.282-3.9251 9.6344-5.7093t10.616-1.7842q5.8877 0 9.6344 0.62445t6.3337 1.6057l-1.9626 7.6718q-4.3712-2.0518-13.292-2.0518-4.0143 0-7.8503 1.3381-3.7467 1.2489-6.7798 4.1928-2.9438 2.8546-4.728 7.5826-1.7842 4.6388-1.7842 11.419 0 6.0661 1.695 10.705 1.6949 4.5496 4.6388 7.6718 3.033 3.0331 7.0474 4.6388 4.1035 1.5165 8.9208 1.5165 4.3712 0 7.5826-0.80287t5.4416-2.0518z"/>
  <path d="m282.1 239.65q8.0287-3.8359 19.893-3.8359 5.3524 0 8.5639 1.4273 3.3007 1.3381 5.0848 3.4791t2.3194 4.8172q0.62445 2.587 0.62445 5.174 0 4.9064-0.35683 9.902-0.35683 4.9064-0.35683 10.705 0 3.3899 0.26762 6.6014 0.35683 3.1223 1.0705 5.7985h-5.9769l-2.2302-7.1366h-0.89207q-0.98129 1.3381-2.4086 2.7654-1.4273 1.3381-3.3899 2.4086t-4.5496 1.7842q-2.4978 0.71366-5.7985 0.71366t-6.0661-0.89207q-2.7654-0.98129-4.8172-2.6762-1.9626-1.6949-3.1223-4.1035-1.1597-2.4978-1.1597-5.5309 0-4.0143 1.6949-6.9582 1.7842-2.9438 4.5496-4.8172t6.2445-2.7654q3.5683-0.89208 7.0474-0.89208 2.7654 0 4.6388 0.0892 1.9626 0.0892 3.2115 0.26762 1.3381 0.0892 2.2302 0.26763 0.89208 0.0892 1.6057 0.17841 0.17841-1.3381 0.26762-2.3194 0.0892-0.98129 0.0892-2.4978 0-2.4978-0.53525-4.1928-0.53524-1.6949-1.7842-2.6762-1.1597-1.0705-3.2115-1.5165-2.0518-0.44604-4.9956-0.44604-1.6949 0-3.7467 0.26763-2.0518 0.26762-4.1036 0.80286-2.0518 0.44604-4.1035 1.1597-1.9626 0.71366-3.5683 1.5165zm27.922 22.659q-0.71366-0.0892-1.5165-0.26763-0.80287-0.17841-2.0518-0.26762-1.1597-0.0892-2.8546-0.17841-1.6057-0.0892-4.0143-0.0892-5.5309 0-8.8315 1.9626-3.2115 1.9626-3.2115 6.6906 0 3.5683 2.4978 5.3524 2.587 1.7842 6.6014 1.7842 2.9438 0 5.174-0.71366 2.3194-0.80287 3.9251-1.8734 1.6949-1.1597 2.6762-2.4978 1.0705-1.4273 1.6057-2.7654z"/>
  <path d="m328.84 236.7h7.9395v-9.456l8.2071-2.141v11.597h14.095v6.9582h-14.095v23.908q0 5.6201 1.4273 7.9395t4.9064 2.3194q2.2302 0 4.0143-0.44604 1.8734-0.53524 4.1928-1.3381l1.8734 5.7985q-2.8546 1.2489-6.1553 2.0518-3.2115 0.89208-6.9582 0.89208-6.2445 0-8.9208-3.3899-2.587-3.3899-2.587-11.062v-26.673h-7.9395z"/>
 </g>
</svg>
