<?xml version="1.0" encoding="UTF-8" standalone="no"?>
<svg
   inkscape:version="1.1 (c68e22c387, 2021-05-23)"
   sodipodi:docname="New document 1.2021_07_31_21_55_18.0.svg"
   id="svg8"
   version="1.1"
   viewBox="0 0 110 100"
   height="100mm"
   width="110mm"
   xmlns:inkscape="http://www.inkscape.org/namespaces/inkscape"
   xmlns:sodipodi="http://sodipodi.sourceforge.net/DTD/sodipodi-0.dtd"
   xmlns="http://www.w3.org/2000/svg"
   xmlns:svg="http://www.w3.org/2000/svg"
   xmlns:rdf="http://www.w3.org/1999/02/22-rdf-syntax-ns#"
   xmlns:cc="http://creativecommons.org/ns#"
   xmlns:dc="http://purl.org/dc/elements/1.1/">
  <defs
     id="defs2">
    <linearGradient
       id="linearGradient11135"
       inkscape:swatch="solid">
      <stop
         style="stop-color:#3e7096;stop-opacity:1;"
         offset="0"
         id="stop11133" />
    </linearGradient>
  </defs>
  <sodipodi:namedview
     inkscape:window-maximized="1"
     inkscape:window-y="51"
     inkscape:window-x="1922"
     inkscape:window-height="1027"
     inkscape:window-width="1916"
     showgrid="false"
     inkscape:document-rotation="0"
     inkscape:current-layer="layer2"
     inkscape:document-units="mm"
     inkscape:cy="134.70384"
     inkscape:cx="139.47681"
     inkscape:zoom="2.8284271"
     inkscape:pageshadow="2"
     inkscape:pageopacity="0.0"
     borderopacity="1.0"
     bordercolor="#666666"
     pagecolor="#ffffff"
     id="base"
     showguides="false"
     inkscape:pagecheckerboard="0"
     width="110mm" />
  <metadata
     id="metadata5">
    <rdf:RDF>
      <cc:Work
         rdf:about="">
        <dc:format>image/svg+xml</dc:format>
        <dc:type
           rdf:resource="http://purl.org/dc/dcmitype/StillImage" />
      </cc:Work>
    </rdf:RDF>
  </metadata>
  <g
     inkscape:groupmode="layer"
     id="layer2"
     inkscape:label="Layer 1">
    <g
       id="g1040"
       transform="matrix(0.65607314,0,0,0.65607314,6.5721269,-36.395925)">
      <g
         id="g1452">
        <g
           id="g493"
           style="fill:#142c54;fill-opacity:1">
          <ellipse
             cy="93.886452"
             cx="-31.021006"
             id="path10"
             style="fill:#142c54;fill-opacity:1;fill-rule:evenodd;stroke:none;stroke-width:0.428873;stroke-miterlimit:4;stroke-dasharray:none;stroke-opacity:1"
             rx="2.728193"
             ry="4.4697495"
             transform="matrix(0.47897533,-0.87782836,0.73170396,0.68162257,0,0)" />
          <ellipse
             style="fill:#142c54;fill-opacity:1;fill-rule:evenodd;stroke:none;stroke-width:0.230991;stroke-linejoin:round;stroke-miterlimit:4;stroke-dasharray:0, 2.5409;stroke-dashoffset:2.30991;stroke-opacity:1"
             id="path10-6"
             ry="5.6022282"
             rx="3.8207142"
             cy="91.958984"
             cx="39.380192"
             transform="matrix(0.96668842,-0.25595605,0.26721558,0.96363678,0,0)" />
        </g>
        <g
           id="g332"
           transform="translate(1.1708835,-0.80365457)">
          <g
             id="g12481"
             transform="matrix(0.42251175,0,0,0.50315133,28.862204,35.139729)">
            <rect
               style="fill:#ffb34a;fill-opacity:1;fill-rule:evenodd;stroke-width:0.154686"
               id="rect66"
               width="2.1299908"
               height="4.8556957"
               x="89.427155"
               y="143.05775" />
            <rect
               style="fill:#ffb34a;fill-opacity:1;fill-rule:evenodd;stroke-width:0.154686"
               id="rect66-2"
               width="2.1299908"
               height="4.8556957"
               x="93.580536"
               y="143.05753" />
            <rect
               style="fill:#ffb34a;fill-opacity:1;fill-rule:evenodd;stroke-width:0.154686"
               id="rect66-9"
               width="2.1299908"
               height="4.8556957"
               x="97.712479"
               y="143.05753" />
          </g>
          <path
             id="rect83"
             style="fill:#142c54;fill-opacity:1;fill-rule:evenodd;stroke:none;stroke-width:0.886641;stroke-miterlimit:4;stroke-dasharray:none;stroke-opacity:1"
             d="m 62.38464,87.922 c -0.464035,0 -0.915437,0.08542 -1.34868,0.247012 0.710308,0.965037 1.102406,2.204246 1.103485,3.487523 -1e-4,2.926475 -1.992297,5.298782 -4.449749,5.298757 -0.431354,-0.0094 -0.859264,-0.09351 -1.270296,-0.249608 -0.02109,0.335818 -0.03188,0.676613 -0.03188,1.02184 v 2.160689 c 0,5.432167 2.674709,9.805257 5.997117,9.805257 h 12.625456 c 3.322409,0 5.997115,-4.37309 5.997115,-9.805257 v -2.160689 c 0,-0.369494 -0.01344,-0.73365 -0.03756,-1.092306 -0.485565,0.210743 -0.998247,0.319142 -1.515055,0.320336 -2.457539,2.6e-5 -4.449773,-2.372441 -4.449751,-5.299019 5.94e-4,-1.314557 0.572281,-2.581924 1.313636,-3.555906 C 75.947162,87.983873 75.402849,87.922 75.010086,87.922 Z m 3.088405,13.15888 h 6.646021 c 0.631528,0 1.139949,0.41579 1.139949,0.9324 v 5.99298 c 0,0.5166 -0.508421,0.93266 -1.139949,0.93266 h -6.646021 c -0.631527,0 -1.139948,-0.41606 -1.139948,-0.93266 v -5.99298 c 0,-0.51661 0.508421,-0.9324 1.139948,-0.9324 z"
             sodipodi:nodetypes="sccccssssssccccsssssssssss" />
        </g>
        <g
           id="g325"
           style="fill:#142c54;fill-opacity:1"
           transform="matrix(-1,0,0,1,138.19911,0)">
          <ellipse
             cy="92.34565"
             cx="-32.217415"
             id="ellipse321"
             style="fill:#142c54;fill-opacity:1;fill-rule:evenodd;stroke:none;stroke-width:0.428873;stroke-miterlimit:4;stroke-dasharray:none;stroke-opacity:1"
             rx="2.728193"
             ry="4.4697495"
             transform="matrix(0.47897533,-0.87782836,0.73170396,0.68162257,0,0)" />
          <ellipse
             style="fill:#142c54;fill-opacity:1;fill-rule:evenodd;stroke:none;stroke-width:0.230991;stroke-linejoin:round;stroke-miterlimit:4;stroke-dasharray:0, 2.5409;stroke-dashoffset:2.30991;stroke-opacity:1"
             id="ellipse323"
             ry="5.6022282"
             rx="3.8208055"
             cy="91.523712"
             cx="37.741459"
             transform="matrix(0.96668842,-0.25595605,0.26721558,0.96363678,0,0)" />
        </g>
      </g>
    </g>
    <g
       id="title"
       style="font-style:normal;font-weight:normal;font-size:72px;line-height:1;font-family:'PT Sans Caption';font-variant-ligatures:none;text-align:center;text-anchor:middle"
       transform="matrix(0.26458333,0,0,0.26458333,-81.738233,-68.963575)">
      <path
         id="path8271"
         style="font-style:normal;font-weight:normal;font-size:72px;line-height:1;font-family:'PT Sans Caption';font-variant-ligatures:none;text-align:center;text-anchor:middle"
         d="m 396.19025,-17.712 1.152,8.424 h 0.144 l 1.296,-8.568 11.16,-32.544 h 3.6 l 11.232,32.688 1.296,8.424 h 0.144 l 1.368,-8.568 8.928,-32.544 h 7.056 l -15.336,51.12 h -4.104 l -11.016,-32.76 -1.512,-7.632 h -0.36 l -1.44,7.704 -11.016,32.688 h -4.176 l -15.624,-51.12 h 7.56 z"
         stroke-width="0"
         stroke-linejoin="miter"
         stroke-miterlimit="2"
         fill="#112d53"
         stroke="#112d53"
         transform="matrix(1.43,0,0,1.43,-219.78436,503.83008)" />
      <path
         id="path8273"
         style="font-style:normal;font-weight:normal;font-size:72px;line-height:1;font-family:'PT Sans Caption';font-variant-ligatures:none;text-align:center;text-anchor:middle"
         d="m 452.28613,-37.8 h 6.62399 V 0 h -6.62399 z m -1.36801,-9 q 0,-1.656 1.29601,-2.952 1.296,-1.368 3.38399,-1.368 2.088,0 3.456,1.368 1.368,1.296 1.368,2.952 0,1.656 -1.368,2.952 -1.368,1.224 -3.456,1.224 -2.08799,0 -3.38399,-1.224 -1.29601,-1.296 -1.29601,-2.952 z"
         stroke-width="0"
         stroke-linejoin="miter"
         stroke-miterlimit="2"
         fill="#163462"
         stroke="#163462"
         transform="matrix(1.43,0,0,1.43,-219.78436,503.83008)" />
      <path
         id="path8275"
         style="font-style:normal;font-weight:normal;font-size:72px;line-height:1;font-family:'PT Sans Caption';font-variant-ligatures:none;text-align:center;text-anchor:middle"
         d="m 492.92338,-31.536 q -1.224,-0.36 -2.37601,-0.648 -1.152,-0.288 -2.15999,-0.288 -3.81601,0 -5.976,1.944 -2.08801,1.944 -2.59201,4.896 V 0 h -6.62399 v -37.8 h 4.608 l 1.29599,5.04 h 0.648 q 1.656,-2.808 3.816,-4.32 2.232,-1.584 5.544,-1.584 1.008,0 2.37601,0.216 1.368,0.144 2.736,0.576 z"
         stroke-width="0"
         stroke-linejoin="miter"
         stroke-miterlimit="2"
         fill="#1b3c70"
         stroke="#1b3c70"
         transform="matrix(1.43,0,0,1.43,-219.78436,503.83008)" />
      <path
         id="path8277"
         style="font-style:normal;font-weight:normal;font-size:72px;line-height:1;font-family:'PT Sans Caption';font-variant-ligatures:none;text-align:center;text-anchor:middle"
         d="m 531.36125,-3.096 q -2.52,1.872 -6.264,3.024 -3.744,1.08 -8.136,1.08 -4.752,0 -8.28,-1.368 -3.456,-1.44 -5.688,-4.032 -2.232,-2.592 -3.312,-6.264 -1.08,-3.672 -1.08,-8.208 0,-9.72 4.752,-14.832 4.824,-5.184 13.68,-5.184 2.808,0 5.616,0.648 2.808,0.576 5.04,2.304 2.232,1.656 3.6,4.608 1.44,2.952 1.44,7.704 0,1.152 -0.072,2.664 -0.072,1.512 -0.288,2.952 h -27 q 0.144,6.624 3.168,10.008 3.024,3.384 10.296,3.384 3.024,0 5.76,-1.008 2.736,-1.08 4.248,-2.52 z m -4.968,-19.656 q 0.144,-5.76 -2.376,-8.136 -2.448,-2.376 -6.912,-2.376 -5.04,0 -7.992,2.376 -2.952,2.376 -3.456,8.136 z"
         stroke-width="0"
         stroke-linejoin="miter"
         stroke-miterlimit="2"
         fill="#20437f"
         stroke="#20437f"
         transform="matrix(1.43,0,0,1.43,-219.78436,503.83008)" />
      <path
         id="path8279"
         style="font-style:normal;font-weight:normal;font-size:72px;line-height:1;font-family:'PT Sans Caption';font-variant-ligatures:none;text-align:center;text-anchor:middle"
         d="m 571.31675,-2.592 q -2.52,1.8 -5.904,2.664 -3.384,0.936 -7.128,0.936 -4.752,0 -8.136,-1.44 -3.312,-1.44 -5.4,-4.032 -2.088,-2.592 -3.024,-6.264 -0.936,-3.672 -0.936,-8.136 0,-9.576 4.608,-14.76 4.68,-5.256 13.392,-5.256 3.816,0 6.624,0.72 2.808,0.648 5.04,1.656 l -1.728,5.4 q -1.944,-1.008 -4.248,-1.584 -2.232,-0.576 -4.896,-0.576 -11.736,0 -11.736,14.4 0,2.736 0.648,5.328 0.648,2.52 2.088,4.536 1.44,1.944 3.744,3.168 2.376,1.224 5.76,1.224 3.024,0 5.256,-0.792 2.304,-0.864 3.816,-2.016 z"
         stroke-width="0"
         stroke-linejoin="miter"
         stroke-miterlimit="2"
         fill="#254a8d"
         stroke="#254a8d"
         transform="matrix(1.43,0,0,1.43,-219.78436,503.83008)" />
      <path
         id="path8281"
         style="font-style:normal;font-weight:normal;font-size:72px;line-height:1;font-family:'PT Sans Caption';font-variant-ligatures:none;text-align:center;text-anchor:middle"
         d="m 580.48212,-35.424 q 6.48001,-3.096 16.05601,-3.096 4.31999,0 6.91199,1.152 2.66401,1.08 4.104,2.808 1.44001,1.728 1.872,3.888 0.504,2.088 0.504,4.176 0,3.96 -0.288,7.992 -0.288,3.96 -0.288,8.64 0,2.736 0.216,5.328 0.288,2.52 0.864,4.68 h -4.82399 l -1.80001,-5.76 h -0.72 q -0.79199,1.08 -1.944,2.232 -1.152,1.08 -2.736,1.944 -1.58399,0.864 -3.672,1.44 -2.016,0.576 -4.67999,0.576 -2.664,0 -4.89601,-0.72 -2.232,-0.792 -3.88799,-2.16 -1.58401,-1.368 -2.52,-3.312 -0.93601,-2.016 -0.93601,-4.464 0,-3.24 1.368,-5.616 1.44,-2.376 3.672,-3.888 2.232,-1.512 5.04001,-2.232 2.88,-0.72 5.688,-0.72 2.23199,0 3.74399,0.072 1.58401,0.072 2.59201,0.216 1.07999,0.072 1.79999,0.216 0.72001,0.072 1.29601,0.144 0.144,-1.08 0.21599,-1.872 0.072,-0.792 0.072,-2.016 0,-2.016 -0.43199,-3.384 -0.432,-1.368 -1.44001,-2.16 -0.936,-0.864 -2.592,-1.224 -1.656,-0.36 -4.032,-0.36 -1.36799,0 -3.024,0.216 -1.65599,0.216 -3.312,0.648 -1.656,0.36 -3.312,0.936 -1.584,0.576 -2.88,1.224 z m 22.53601,18.288 q -0.576,-0.072 -1.22401,-0.216 -0.648,-0.144 -1.656,-0.216 -0.93599,-0.072 -2.304,-0.144 -1.29599,-0.072 -3.24,-0.072 -4.46399,0 -7.12799,1.584 -2.592,1.584 -2.592,5.4 0,2.88 2.01599,4.32 2.088,1.44 5.328,1.44 2.376,0 4.17601,-0.576 1.87199,-0.648 3.168,-1.512 1.36799,-0.936 2.15999,-2.016 0.86401,-1.152 1.29601,-2.232 z"
         stroke-width="0"
         stroke-linejoin="miter"
         stroke-miterlimit="2"
         fill="#2a529c"
         stroke="#2a529c"
         transform="matrix(1.43,0,0,1.43,-219.78436,503.83008)" />
      <path
         id="path8283"
         style="font-style:normal;font-weight:normal;font-size:72px;line-height:1;font-family:'PT Sans Caption';font-variant-ligatures:none;text-align:center;text-anchor:middle"
         d="m 618.21237,-37.8 h 6.408 v -7.632 l 6.624,-1.728 v 9.36 h 11.376 v 5.616 h -11.376 v 19.296 q 0,4.536 1.15201,6.408 1.15199,1.872 3.95999,1.872 1.80001,0 3.24,-0.36 1.51201,-0.432 3.384,-1.08 l 1.51201,4.68 q -2.30401,1.008 -4.96801,1.656 -2.592,0.72 -5.616,0.72 -5.03999,0 -7.19999,-2.736 -2.08801,-2.736 -2.08801,-8.928 v -21.528 h -6.408 z"
         stroke-width="0"
         stroke-linejoin="miter"
         stroke-miterlimit="2"
         fill="#2f59aa"
         stroke="#2f59aa"
         transform="matrix(1.43,0,0,1.43,-219.78436,503.83008)" />
    </g>
  </g>
</svg>
