<svg viewBox="60.414 139.92 89.171 17.159" xmlns="http://www.w3.org/2000/svg"><defs><linearGradient id="a"><stop stop-color="#142c54" offset="0"/><stop stop-color="#2f59aa" offset="1"/></linearGradient></defs><g style="fill-opacity:1;fill:#142c54"><path d="m66.055 150.941.378 2.762h.047l.425-2.809 3.658-10.668h1.18l3.682 10.715.425 2.762h.047l.449-2.81 2.927-10.668h2.313l-5.028 16.758h-1.345l-3.611-10.739-.496-2.502h-.118l-.472 2.526-3.611 10.715h-1.37l-5.12-16.757h2.477zM84.466 144.356h2.171v12.391h-2.171zm-.449-2.95q0-.543.425-.968.425-.448 1.11-.448.684 0 1.132.448.449.425.449.968 0 .543-.449.967-.448.402-1.133.402-.684 0-1.109-.402-.425-.424-.425-.967zM97.8 146.41q-.4-.119-.778-.213-.378-.095-.708-.095-1.251 0-1.96.638-.684.637-.849 1.605v8.402h-2.171v-12.391h1.51l.425 1.652h.212q.543-.92 1.251-1.416.732-.52 1.818-.52.33 0 .779.071.448.048.896.19zM110.381 155.733q-.826.614-2.053.991-1.227.354-2.667.354-1.558 0-2.714-.448-1.133-.472-1.865-1.322-.732-.85-1.086-2.053-.354-1.204-.354-2.691 0-3.186 1.558-4.862 1.581-1.7 4.484-1.7.921 0 1.841.213.921.189 1.653.755.731.543 1.18 1.51.472.968.472 2.526 0 .378-.024.873-.023.496-.094.968h-8.851q.047 2.172 1.038 3.28.992 1.11 3.376 1.11.99 0 1.888-.33.897-.354 1.392-.826zm-1.628-6.444q.047-1.888-.78-2.667-.802-.778-2.265-.778-1.652 0-2.62.778-.967.78-1.133 2.667z" style="mix-blend-mode:color;fill:#142c54;stroke-width:.590066;fill-opacity:1"/></g><g style="fill-opacity:1;fill:#f29831"><path d="M126.124 156.04q-.779.566-1.983.779-1.203.236-2.549.236-1.581 0-3.021-.496-1.416-.52-2.502-1.558-1.086-1.062-1.723-2.667-.637-1.628-.637-3.847 0-2.313.708-3.942.708-1.628 1.84-2.643 1.134-1.039 2.55-1.51 1.416-.473 2.809-.473 1.558 0 2.549.166.991.165 1.676.424l-.52 2.03q-1.156-.543-3.516-.543-1.063 0-2.077.354-.992.33-1.794 1.11-.78.755-1.251 2.006-.472 1.227-.472 3.021 0 1.605.448 2.833.449 1.203 1.228 2.03.802.802 1.864 1.227 1.086.4 2.36.4 1.157 0 2.007-.212.85-.212 1.44-.542zM128.603 145.137q2.124-1.015 5.263-1.015 1.416 0 2.266.377.873.354 1.345.92.473.567.614 1.275.165.685.165 1.37 0 1.297-.094 2.62-.094 1.297-.094 2.832 0 .896.07 1.746.095.826.284 1.534h-1.582l-.59-1.888h-.236q-.26.354-.637.732-.378.354-.897.637-.52.283-1.204.472-.66.189-1.534.189-.873 0-1.605-.236-.732-.26-1.274-.708-.52-.449-.827-1.086-.306-.66-.306-1.463 0-1.062.448-1.841.472-.78 1.204-1.275.731-.495 1.652-.731.944-.237 1.865-.237.731 0 1.227.024.52.024.85.07.354.024.59.072.236.023.425.047.047-.354.07-.614.024-.26.024-.66 0-.662-.142-1.11-.141-.448-.472-.708-.307-.283-.85-.401-.542-.118-1.321-.118-.449 0-.992.07-.542.071-1.085.213-.543.118-1.086.307-.52.189-.944.401zm7.388 5.995q-.19-.024-.402-.071-.212-.047-.542-.07-.307-.024-.756-.048-.425-.024-1.062-.024-1.463 0-2.336.52-.85.519-.85 1.77 0 .944.66 1.416.685.472 1.747.472.78 0 1.37-.189.613-.212 1.038-.495.448-.307.708-.661.283-.378.425-.732zM140.97 144.356h2.1v-2.502l2.172-.566v3.068h3.729v1.841h-3.73v6.326q0 1.487.378 2.1.378.614 1.298.614.59 0 1.062-.118.496-.142 1.11-.354l.495 1.534q-.755.33-1.628.543-.85.236-1.841.236-1.652 0-2.36-.897-.685-.897-.685-2.927v-7.057h-2.1z" style="mix-blend-mode:color;stroke-width:.590066;fill-opacity:1;fill:#f29831"/></g></svg>