<?xml version="1.0" encoding="UTF-8" standalone="no"?>
<svg
   inkscape:version="1.1 (c68e22c387, 2021-05-23)"
   sodipodi:docname="logo1.svg"
   id="svg8"
   version="1.1"
   viewBox="0 0 26 24"
   height="24mm"
   width="26mm"
   xmlns:inkscape="http://www.inkscape.org/namespaces/inkscape"
   xmlns:sodipodi="http://sodipodi.sourceforge.net/DTD/sodipodi-0.dtd"
   xmlns="http://www.w3.org/2000/svg"
   xmlns:svg="http://www.w3.org/2000/svg"
   xmlns:rdf="http://www.w3.org/1999/02/22-rdf-syntax-ns#"
   xmlns:cc="http://creativecommons.org/ns#"
   xmlns:dc="http://purl.org/dc/elements/1.1/">
  <defs
     id="defs2">
    <linearGradient
       id="linearGradient11135"
       inkscape:swatch="solid">
      <stop
         style="stop-color:#3e7096;stop-opacity:1;"
         offset="0"
         id="stop11133" />
    </linearGradient>
  </defs>
  <sodipodi:namedview
     inkscape:window-maximized="1"
     inkscape:window-y="51"
     inkscape:window-x="1922"
     inkscape:window-height="1027"
     inkscape:window-width="1916"
     showgrid="false"
     inkscape:document-rotation="0"
     inkscape:current-layer="layer2"
     inkscape:document-units="mm"
     inkscape:cy="37.25"
     inkscape:cx="55.75"
     inkscape:zoom="8"
     inkscape:pageshadow="2"
     inkscape:pageopacity="0.0"
     borderopacity="1.0"
     bordercolor="#666666"
     pagecolor="#ffffff"
     id="base"
     showguides="false"
     inkscape:pagecheckerboard="0" />
  <metadata
     id="metadata5">
    <rdf:RDF>
      <cc:Work
         rdf:about="">
        <dc:format>image/svg+xml</dc:format>
        <dc:type
           rdf:resource="http://purl.org/dc/dcmitype/StillImage" />
      </cc:Work>
    </rdf:RDF>
  </metadata>
  <g
     inkscape:groupmode="layer"
     id="layer2"
     inkscape:label="Layer 1">
    <g
       id="g1040"
       transform="matrix(0.65607314,0,0,0.65607314,-32.884722,-47.646432)">
      <g
         id="g1452">
        <g
           id="g493"
           style="fill:#142c54;fill-opacity:1">
          <ellipse
             cy="93.886452"
             cx="-31.021006"
             id="path10"
             style="fill:#142c54;fill-opacity:1;fill-rule:evenodd;stroke:none;stroke-width:0.428873;stroke-miterlimit:4;stroke-dasharray:none;stroke-opacity:1"
             rx="2.728193"
             ry="4.4697495"
             transform="matrix(0.47897533,-0.87782836,0.73170396,0.68162257,0,0)" />
          <ellipse
             style="fill:#142c54;fill-opacity:1;fill-rule:evenodd;stroke:none;stroke-width:0.230991;stroke-linejoin:round;stroke-miterlimit:4;stroke-dasharray:0, 2.5409;stroke-dashoffset:2.30991;stroke-opacity:1"
             id="path10-6"
             ry="5.6022282"
             rx="3.8207142"
             cy="91.958984"
             cx="39.380192"
             transform="matrix(0.96668842,-0.25595605,0.26721558,0.96363678,0,0)" />
        </g>
        <g
           id="g332"
           transform="translate(1.1708835,-0.80365457)">
          <g
             id="g12481"
             transform="matrix(0.42251175,0,0,0.50315133,28.862204,35.139729)">
            <rect
               style="fill:#ffb34a;fill-opacity:1;fill-rule:evenodd;stroke-width:0.154686"
               id="rect66"
               width="2.1299908"
               height="4.8556957"
               x="89.427155"
               y="143.05775" />
            <rect
               style="fill:#ffb34a;fill-opacity:1;fill-rule:evenodd;stroke-width:0.154686"
               id="rect66-2"
               width="2.1299908"
               height="4.8556957"
               x="93.580536"
               y="143.05753" />
            <rect
               style="fill:#ffb34a;fill-opacity:1;fill-rule:evenodd;stroke-width:0.154686"
               id="rect66-9"
               width="2.1299908"
               height="4.8556957"
               x="97.712479"
               y="143.05753" />
          </g>
          <path
             id="rect83"
             style="fill:#142c54;fill-opacity:1;fill-rule:evenodd;stroke:none;stroke-width:0.886641;stroke-miterlimit:4;stroke-dasharray:none;stroke-opacity:1"
             d="m 62.38464,87.922 c -0.464035,0 -0.915437,0.08542 -1.34868,0.247012 0.710308,0.965037 1.102406,2.204246 1.103485,3.487523 -1e-4,2.926475 -1.992297,5.298782 -4.449749,5.298757 -0.431354,-0.0094 -0.859264,-0.09351 -1.270296,-0.249608 -0.02109,0.335818 -0.03188,0.676613 -0.03188,1.02184 v 2.160689 c 0,5.432167 2.674709,9.805257 5.997117,9.805257 h 12.625456 c 3.322409,0 5.997115,-4.37309 5.997115,-9.805257 v -2.160689 c 0,-0.369494 -0.01344,-0.73365 -0.03756,-1.092306 -0.485565,0.210743 -0.998247,0.319142 -1.515055,0.320336 -2.457539,2.6e-5 -4.449773,-2.372441 -4.449751,-5.299019 5.94e-4,-1.314557 0.572281,-2.581924 1.313636,-3.555906 C 75.947162,87.983873 75.402849,87.922 75.010086,87.922 Z m 3.088405,13.15888 h 6.646021 c 0.631528,0 1.139949,0.41579 1.139949,0.9324 v 5.99298 c 0,0.5166 -0.508421,0.93266 -1.139949,0.93266 h -6.646021 c -0.631527,0 -1.139948,-0.41606 -1.139948,-0.93266 v -5.99298 c 0,-0.51661 0.508421,-0.9324 1.139948,-0.9324 z"
             sodipodi:nodetypes="sccccssssssccccsssssssssss" />
        </g>
        <g
           id="g325"
           style="fill:#142c54;fill-opacity:1"
           transform="matrix(-1,0,0,1,138.19911,0)">
          <ellipse
             cy="92.34565"
             cx="-32.217415"
             id="ellipse321"
             style="fill:#142c54;fill-opacity:1;fill-rule:evenodd;stroke:none;stroke-width:0.428873;stroke-miterlimit:4;stroke-dasharray:none;stroke-opacity:1"
             rx="2.728193"
             ry="4.4697495"
             transform="matrix(0.47897533,-0.87782836,0.73170396,0.68162257,0,0)" />
          <ellipse
             style="fill:#142c54;fill-opacity:1;fill-rule:evenodd;stroke:none;stroke-width:0.230991;stroke-linejoin:round;stroke-miterlimit:4;stroke-dasharray:0, 2.5409;stroke-dashoffset:2.30991;stroke-opacity:1"
             id="ellipse323"
             ry="5.6022282"
             rx="3.8208055"
             cy="91.523712"
             cx="37.741459"
             transform="matrix(0.96668842,-0.25595605,0.26721558,0.96363678,0,0)" />
        </g>
      </g>
    </g>
  </g>
</svg>
