<svg version="1.1" viewBox="60.414 139.92 89.171 17.159" xmlns="http://www.w3.org/2000/svg" xmlns:xlink="http://www.w3.org/1999/xlink">
 <g fill="#2f59aa" stroke-width=".59007">
  <path d="m66.055 150.94 0.37764 2.7614h0.04721l0.42484-2.8088 3.6583-10.668h1.1801l3.6819 10.715 0.42484 2.7614h0.04721l0.44844-2.8088 2.9268-10.668h2.313l-5.0273 16.758h-1.3453l-3.6113-10.739-0.49566-2.5019h-0.11801l-0.47206 2.5255-3.6113 10.715h-1.3689l-5.1217-16.758h2.4783z" style="mix-blend-mode:color"/>
  <path d="m84.466 144.36h2.1714v12.391h-2.1714zm-0.44846-2.9503q0-0.54286 0.42484-0.9677 0.42484-0.44843 1.1093-0.44843 0.6845 0 1.1329 0.44843 0.44844 0.42484 0.44844 0.9677 0 0.54287-0.44844 0.96771-0.44844 0.40123-1.1329 0.40123-0.68449 0-1.1093-0.40123-0.42484-0.42484-0.42484-0.96771z" style="mix-blend-mode:color"/>
  <path d="m97.801 146.41q-0.40124-0.11802-0.77887-0.21243-0.37764-0.0944-0.70807-0.0944-1.2509 0-1.959 0.63727-0.68447 0.63727-0.8497 1.605v8.4025h-2.1714v-12.391h1.5106l0.42484 1.6522h0.21242q0.54287-0.9205 1.2509-1.4161 0.73167-0.51926 1.8174-0.51926 0.33043 0 0.77887 0.0708 0.44844 0.0472 0.8969 0.18882z" style="mix-blend-mode:color"/>
  <path d="m110.38 155.73q-0.82609 0.61366-2.0534 0.9913-1.2273 0.35403-2.667 0.35403-1.5578 0-2.7143-0.44846-1.1329-0.47206-1.8646-1.3217-0.73167-0.8497-1.0857-2.0534-0.35406-1.2037-0.35404-2.6908 0-3.1863 1.5578-4.8622 1.5814-1.6994 4.4844-1.6994 0.9205 0 1.841 0.21243 0.9205 0.18882 1.6522 0.75527 0.73167 0.54286 1.1801 1.5106 0.47206 0.9677 0.47206 2.5255 0 0.37764-0.0236 0.8733t-0.0944 0.9677h-8.851q0.0472 2.1714 1.0385 3.2808 0.9913 1.1093 3.3752 1.1093 0.99131 0 1.8882-0.33043 0.8969-0.35403 1.3925-0.8261zm-1.6286-6.4436q0.0472-1.8882-0.77887-2.667-0.80249-0.77887-2.2658-0.77887-1.6522 0-2.6199 0.77887-0.96771 0.77887-1.1329 2.667z" style="mix-blend-mode:color"/>
 </g>
 <g fill="#f29831" stroke-width=".59007">
  <path d="m126.12 156.04q-0.77887 0.56646-1.9826 0.77887-1.2037 0.23603-2.5491 0.23603-1.5814 0-3.0212-0.49567-1.4161-0.51926-2.5019-1.5578-1.0857-1.0621-1.723-2.667-0.63726-1.6286-0.63726-3.8473 0-2.313 0.70807-3.9417 0.70807-1.6286 1.841-2.6435 1.1329-1.0385 2.5491-1.5106 1.4161-0.47206 2.8088-0.47206 1.5578 0 2.5491 0.16521 0.9913 0.16522 1.6758 0.42484l-0.51927 2.0298q-1.1565-0.54286-3.5168-0.54286-1.0621 0-2.077 0.35403-0.9913 0.33044-1.7938 1.1093-0.77887 0.75527-1.2509 2.0062-0.47206 1.2273-0.47206 3.0212 0 1.605 0.44846 2.8323 0.44844 1.2037 1.2273 2.0298 0.80247 0.8025 1.8646 1.2273 1.0857 0.40124 2.3603 0.40124 1.1565 0 2.0062-0.21242 0.84968-0.21243 1.4397-0.54287z" style="mix-blend-mode:color"/>
  <path d="m128.6 145.14q2.1242-1.0149 5.2633-1.0149 1.4161 0 2.2658 0.37764 0.8733 0.35403 1.3453 0.9205t0.61367 1.2745q0.16521 0.68447 0.16521 1.3689 0 1.2981-0.0944 2.6199-0.0944 1.2981-0.0944 2.8323 0 0.8969 0.0708 1.7466 0.0944 0.8261 0.28323 1.5342h-1.5814l-0.59007-1.8882h-0.23602q-0.25963 0.35403-0.63727 0.73167-0.37764 0.35403-0.8969 0.63726-0.51927 0.28324-1.2037 0.47207-0.66087 0.18882-1.5342 0.18882t-1.605-0.23603q-0.73167-0.25963-1.2745-0.70807-0.51927-0.44843-0.8261-1.0857-0.30684-0.66087-0.30684-1.4634 0-1.0621 0.44844-1.841 0.47206-0.77887 1.2037-1.2745 0.73167-0.49567 1.6522-0.73167 0.9441-0.23603 1.8646-0.23603 0.73167 0 1.2273 0.0236 0.51926 0.0236 0.8497 0.0708 0.35403 0.0236 0.59006 0.0708 0.23603 0.0236 0.42484 0.0472 0.0472-0.35403 0.0708-0.61366t0.0236-0.66087q0-0.66087-0.14162-1.1093-0.14161-0.44844-0.47206-0.70807-0.30684-0.28323-0.8497-0.40124-0.54287-0.11801-1.3217-0.11801-0.44843 0-0.9913 0.0708t-1.0857 0.21242q-0.54287 0.11801-1.0857 0.30683-0.51927 0.18882-0.94411 0.40124zm7.3876 5.9951q-0.18882-0.0236-0.40123-0.0708-0.21243-0.0472-0.54287-0.0708-0.30683-0.0236-0.75527-0.0472-0.42484-0.0236-1.0621-0.0236-1.4634 0-2.3366 0.51927-0.8497 0.51926-0.8497 1.7702 0 0.9441 0.66087 1.4161 0.68447 0.47206 1.7466 0.47206 0.77887 0 1.3689-0.18882 0.61367-0.21242 1.0385-0.49566 0.44843-0.30684 0.70806-0.66087 0.28324-0.37764 0.42484-0.73167z" style="mix-blend-mode:color"/>
  <path d="m140.97 144.36h2.1006v-2.5019l2.1714-0.56647v3.0683h3.7293v1.841h-3.7293v6.3256q0 1.487 0.37764 2.1006 0.37763 0.61366 1.2981 0.61366 0.59007 0 1.0621-0.11801 0.49566-0.14161 1.1093-0.35403l0.49566 1.5342q-0.75527 0.33044-1.6286 0.54287-0.84969 0.23603-1.841 0.23603-1.6522 0-2.3603-0.8969-0.68447-0.8969-0.68447-2.9268v-7.0571h-2.1006z" style="mix-blend-mode:color"/>
 </g>
</svg>
