<svg version="1.1" viewBox="85.218 130.51 39.564 35.987" xmlns="http://www.w3.org/2000/svg">
 <g transform="matrix(.26458 0 0 .26458 85.094 128.39)">
  <g>
   <g transform="matrix(2.5805 0 0 3.7223 -156.67 -277.97)" fill="#ffb34a" fill-rule="evenodd" stroke-width=".071321">
    <rect x="87.669" y="110.85" width=".89995" height="2.4431"/>
    <rect x="89.424" y="110.85" width=".89995" height="2.4431"/>
    <rect x="91.17" y="110.85" width=".89995" height="2.4431"/>
   </g>
   <path d="m60.384 59.625c-0.64062 0-1.2738 0.02969-1.9031 0.07261a19.468 19.761 0 0 1 6.3918 14.639 19.468 19.761 0 0 1-19.468 19.761 19.468 19.761 0 0 1-12.369-4.5133v27.093c0 15.151 12.197 27.348 27.348 27.348h29.705c15.151 0 27.348-12.197 27.348-27.348v-26.642a19.468 19.761 0 0 1-11.805 4.0629 19.468 19.761 0 0 1-19.468-19.761 19.468 19.761 0 0 1 6.361-14.604c-0.8026-0.07023-1.6146-0.10829-2.436-0.10829zm6.6884 55.587h16.328c2.9444 0 5.315 2.37 5.315 5.3144v16.328c0 2.9444-2.3706 5.3144-5.315 5.3144h-16.328c-2.9444 0-5.315-2.37-5.315-5.3144v-16.328c0-2.9444 2.3706-5.3144 5.315-5.3144z" fill="#142c54" stroke-width=".37218"/>
   <g transform="translate(0 -1.0583)" fill="#142c54" fill-rule="evenodd">
    <ellipse transform="matrix(.47898 -.87783 .7317 .68162 0 0)" cx="-43.926" cy="49.793" rx="11.558" ry="18.936"/>
    <ellipse transform="matrix(.96669 -.25596 .26722 .96364 0 0)" cx="36.726" cy="42.007" rx="15.326" ry="22.472"/>
   </g>
   <g transform="matrix(-1 0 0 1 150.47 -1.0583)" fill="#142c54" fill-rule="evenodd">
    <ellipse transform="matrix(.47898 -.87783 .7317 .68162 0 0)" cx="-43.926" cy="49.793" rx="11.558" ry="18.936"/>
    <ellipse transform="matrix(.96669 -.25596 .26722 .96364 0 0)" cx="36.726" cy="42.007" rx="15.326" ry="22.472"/>
   </g>
  </g>
 </g>
</svg>
