<?xml version="1.0" encoding="UTF-8" standalone="no"?>
<svg
   version="1.1"
   viewBox="60.414 139.92 89.171 17.159"
   id="svg26"
   sodipodi:docname="name.svg"
   inkscape:version="1.1 (c68e22c387, 2021-05-23)"
   xmlns:inkscape="http://www.inkscape.org/namespaces/inkscape"
   xmlns:sodipodi="http://sodipodi.sourceforge.net/DTD/sodipodi-0.dtd"
   xmlns:xlink="http://www.w3.org/1999/xlink"
   xmlns="http://www.w3.org/2000/svg"
   xmlns:svg="http://www.w3.org/2000/svg">
  <sodipodi:namedview
     id="namedview28"
     pagecolor="#ffffff"
     bordercolor="#666666"
     borderopacity="1.0"
     inkscape:pageshadow="2"
     inkscape:pageopacity="0.0"
     inkscape:pagecheckerboard="0"
     showgrid="false"
     inkscape:zoom="4.9362908"
     inkscape:cx="34.236233"
     inkscape:cy="16.712954"
     inkscape:window-width="1916"
     inkscape:window-height="1006"
     inkscape:window-x="0"
     inkscape:window-y="0"
     inkscape:window-maximized="1"
     inkscape:current-layer="svg26" />
  <defs
     id="defs8">
    <linearGradient
       id="linearGradient8871">
      <stop
         stop-color="#142c54"
         offset="0"
         id="stop2735" />
      <stop
         stop-color="#2f59aa"
         offset="1"
         id="stop2737" />
    </linearGradient>
    <radialGradient
       id="radialGradient9420"
       cx="213.39"
       cy="654.77002"
       r="173.73"
       gradientTransform="matrix(1.0819734,0.00743723,-0.00413557,0.60164579,-201.19808,-145.24772)"
       gradientUnits="userSpaceOnUse"
       xlink:href="#linearGradient8871-9"
       fx="213.39"
       fy="654.77002" />
    <linearGradient
       id="linearGradient8871-9">
      <stop
         stop-color="#142c54"
         offset="0"
         id="stop3" />
      <stop
         stop-color="#2f59aa"
         offset="1"
         id="stop5" />
    </linearGradient>
  </defs>
  <g
     id="g2325"
     style="fill-opacity:1;fill:#142c54">
    <path
       d="m 66.055248,150.94148 0.377635,2.76142 h 0.04721 l 0.424836,-2.80878 3.658348,-10.66839 h 1.180132 l 3.681896,10.71549 0.424836,2.76142 h 0.04721 l 0.448437,-2.80878 2.926784,-10.6684 h 2.313038 l -5.027285,16.75771 h -1.345336 l -3.611253,-10.73904 -0.495664,-2.50187 h -0.118013 l -0.472064,2.52547 -3.611252,10.71549 h -1.368937 l -5.12174,-16.7577 h 2.478268 z"
       id="path10"
       style="mix-blend-mode:color;fill:#142c54;stroke-width:0.590066;fill-opacity:1" />
    <path
       d="m 84.465782,144.35609 h 2.171435 v 12.39134 h -2.171435 z m -0.448463,-2.95034 q 0,-0.54286 0.424836,-0.9677 0.424837,-0.44843 1.109331,-0.44843 0.684495,0 1.132932,0.44843 0.448437,0.42484 0.448437,0.9677 0,0.54287 -0.448437,0.96771 -0.448437,0.40123 -1.132932,0.40123 -0.684494,0 -1.109331,-0.40123 -0.424836,-0.42484 -0.424836,-0.96771 z"
       id="path12"
       style="mix-blend-mode:color;fill:#142c54;stroke-width:0.590066;fill-opacity:1" />
    <path
       d="m 97.800614,146.40923 q -0.401235,-0.11802 -0.77887,-0.21243 -0.377635,-0.0944 -0.708069,-0.0944 -1.250934,0 -1.959003,0.63727 -0.684469,0.63727 -0.849699,1.60497 v 8.40253 h -2.171435 v -12.39134 h 1.510567 l 0.424836,1.65217 h 0.212423 q 0.542866,-0.9205 1.250935,-1.41614 0.731669,-0.51926 1.8174,-0.51926 0.330434,0 0.77887,0.0708 0.448437,0.0472 0.8969,0.18882 z"
       id="path14"
       style="mix-blend-mode:color;fill:#142c54;stroke-width:0.590066;fill-opacity:1" />
    <path
       d="m 110.38139,155.73303 q -0.82609,0.61366 -2.0534,0.9913 -1.22734,0.35403 -2.66697,0.35403 -1.55777,0 -2.71432,-0.44846 -1.13294,-0.47206 -1.86461,-1.32174 -0.73167,-0.8497 -1.085726,-2.0534 -0.354061,-1.20371 -0.354035,-2.69078 0,-3.18634 1.557771,-4.86219 1.58137,-1.69937 4.48436,-1.69937 0.9205,0 1.841,0.21243 0.9205,0.18882 1.65217,0.75527 0.73167,0.54286 1.18014,1.51056 0.47206,0.9677 0.47206,2.52547 0,0.37764 -0.0236,0.8733 -0.0236,0.49566 -0.0944,0.9677 h -8.851 q 0.0472,2.17144 1.03851,3.28079 0.9913,1.10933 3.37524,1.10933 0.99131,0 1.88821,-0.33043 0.8969,-0.35403 1.39253,-0.8261 z m -1.62857,-6.44359 q 0.0472,-1.8882 -0.77887,-2.66696 -0.80249,-0.77887 -2.26583,-0.77887 -1.65217,0 -2.61987,0.77887 -0.96771,0.77887 -1.13294,2.66696 z"
       id="path16"
       style="mix-blend-mode:color;fill:#142c54;stroke-width:0.590066;fill-opacity:1" />
  </g>
  <g
     id="g2319"
     style="fill-opacity:1;fill:#f29831">
    <path
       d="m 126.1239,156.03994 q -0.77887,0.56646 -1.9826,0.77887 -1.20373,0.23603 -2.54907,0.23603 -1.58137,0 -3.02124,-0.49567 -1.41614,-0.51926 -2.50187,-1.55777 -1.08573,-1.0621 -1.723,-2.66696 -0.63726,-1.62857 -0.63726,-3.84726 0,-2.31304 0.70807,-3.94171 0.70807,-1.62857 1.841,-2.64347 1.13293,-1.03851 2.54907,-1.51057 1.41613,-0.47206 2.80878,-0.47206 1.55777,0 2.54907,0.16521 0.9913,0.16522 1.67577,0.42484 l -0.51927,2.0298 q -1.15653,-0.54286 -3.51679,-0.54286 -1.06211,0 -2.07704,0.35403 -0.9913,0.33044 -1.7938,1.10933 -0.77887,0.75527 -1.25093,2.00621 -0.47206,1.22733 -0.47206,3.02124 0,1.60497 0.44846,2.83233 0.44844,1.20373 1.22733,2.0298 0.80247,0.8025 1.8646,1.22733 1.08571,0.40124 2.36027,0.40124 1.15653,0 2.0062,-0.21242 0.84968,-0.21243 1.43974,-0.54287 z"
       id="path18"
       style="mix-blend-mode:color;stroke-width:0.590066;fill-opacity:1;fill:#f29831" />
    <path
       d="m 128.60302,145.1366 q 2.12423,-1.01491 5.26329,-1.01491 1.41614,0 2.26583,0.37764 0.8733,0.35403 1.34534,0.9205 0.47204,0.56647 0.61367,1.27453 0.16521,0.68447 0.16521,1.36894 0,1.29814 -0.0944,2.61987 -0.0944,1.29814 -0.0944,2.83233 0,0.8969 0.0708,1.7466 0.0944,0.8261 0.28323,1.53417 h -1.58136 l -0.59007,-1.8882 h -0.23602 q -0.25963,0.35403 -0.63727,0.73167 -0.37764,0.35403 -0.8969,0.63726 -0.51927,0.28324 -1.20373,0.47207 -0.66087,0.18882 -1.53417,0.18882 -0.8733,0 -1.60497,-0.23603 -0.73167,-0.25963 -1.27453,-0.70807 -0.51927,-0.44843 -0.8261,-1.0857 -0.30684,-0.66087 -0.30684,-1.46337 0,-1.0621 0.44844,-1.841 0.47206,-0.77887 1.20373,-1.27453 0.73167,-0.49567 1.65217,-0.73167 0.9441,-0.23603 1.8646,-0.23603 0.73167,0 1.22734,0.0236 0.51926,0.0236 0.8497,0.0708 0.35403,0.0236 0.59006,0.0708 0.23603,0.0236 0.42484,0.0472 0.0472,-0.35403 0.0708,-0.61366 0.0236,-0.25963 0.0236,-0.66087 0,-0.66087 -0.14162,-1.10933 -0.14161,-0.44844 -0.47206,-0.70807 -0.30684,-0.28323 -0.8497,-0.40124 -0.54287,-0.11801 -1.32174,-0.11801 -0.44843,0 -0.9913,0.0708 -0.54287,0.0708 -1.08573,0.21242 -0.54287,0.11801 -1.0857,0.30683 -0.51927,0.18882 -0.94411,0.40124 z m 7.3876,5.99512 q -0.18882,-0.0236 -0.40123,-0.0708 -0.21243,-0.0472 -0.54287,-0.0708 -0.30683,-0.0236 -0.75527,-0.0472 -0.42484,-0.0236 -1.0621,-0.0236 -1.46337,0 -2.33664,0.51927 -0.8497,0.51926 -0.8497,1.7702 0,0.9441 0.66087,1.41614 0.68447,0.47206 1.7466,0.47206 0.77887,0 1.36893,-0.18882 0.61367,-0.21242 1.03851,-0.49566 0.44843,-0.30684 0.70806,-0.66087 0.28324,-0.37764 0.42484,-0.73167 z"
       id="path20"
       style="mix-blend-mode:color;stroke-width:0.590066;fill-opacity:1;fill:#f29831" />
    <path
       d="m 140.96949,144.35609 h 2.10063 v -2.50187 l 2.17143,-0.56647 v 3.06834 h 3.72926 v 1.841 h -3.72926 v 6.32558 q 0,1.48696 0.37764,2.10063 0.37763,0.61366 1.29813,0.61366 0.59007,0 1.06211,-0.11801 0.49566,-0.14161 1.10933,-0.35403 l 0.49566,1.53416 q -0.75527,0.33044 -1.62857,0.54287 -0.84969,0.23603 -1.841,0.23603 -1.65217,0 -2.36026,-0.8969 -0.68447,-0.8969 -0.68447,-2.92679 v -7.05714 h -2.10063 z"
       id="path22"
       style="mix-blend-mode:color;stroke-width:0.590066;fill-opacity:1;fill:#f29831" />
  </g>
</svg>
